# xmcd
#
# Track frame offsets:
#	150
#	14279
#	30808
#	42384
#	53425
#	74470
#	85666
#	106104
#	120035
#	131927
#	147894
#
# Disc length: 2724 seconds
#
# Revision: 1
# Processed by: cddbd v1.5.2PL0 Copyright (c) Steve Scherf et al.
# Submitted via: audiograbber 1.83.01
#
DISCID=800aa20b
DTITLE=Bob Wayne - Blood To Dust
DYEAR=2006
DGENRE=Country
TTITLE0=Road Bound
TTITLE1=Ghost Town
TTITLE2=27 Years
TTITLE3=Here Comes the Bride
TTITLE4=La Diabla
TTITLE5=My Only Friend
TTITLE6=Blood To Dust
TTITLE7=5 In The Morning
TTITLE8=Darkness
TTITLE9=Work Of The Devil
TTITLE10=Cardboard Blues
EXTD=
EXTT0=
EXTT1=
EXTT2=
EXTT3=
EXTT4=
EXTT5=
EXTT6=
EXTT7=
EXTT8=
EXTT9=
EXTT10=
PLAYORDER=
